Coordinates
version=1
nRows=13
nColumns=40
inDegrees=yes

Units are S.I. units (second, meters, Newtons, ...)
If the header above contains a line with 'inDegrees', this indicates whether rotational values are in degrees (yes) or radians (no).

endheader
time	pelvis_tilt	pelvis_list	pelvis_rotation	pelvis_tx	pelvis_ty	pelvis_tz	hip_flexion_r	hip_adduction_r	hip_rotation_r	knee_angle_r	knee_angle_r_beta	ankle_angle_r	subtalar_angle_r	mtp_angle_r	hip_flexion_l	hip_adduction_l	hip_rotation_l	knee_angle_l	knee_angle_l_beta	ankle_angle_l	subtalar_angle_l	mtp_angle_l	lumbar_extension	lumbar_bending	lumbar_rotation	arm_flex_r	arm_add_r	arm_rot_r	elbow_flex_r	pro_sup_r	wrist_flex_r	wrist_dev_r	arm_flex_l	arm_add_l	arm_rot_l	elbow_flex_l	pro_sup_l	wrist_flex_l	wrist_dev_l
     18.82500000	    -22.41253708	     -3.42925707	    176.45833507	      0.25983310	      0.98432334	     -0.57330440	    -11.88589270	    -12.01032938	    -12.67988130	     15.76804633	      0.27520433	      3.06616421	      0.00000000	      0.00000000	    -13.13325764	      2.21190969	     -7.94215710	     14.73765466	      0.25722060	      4.77705415	      0.00000000	      0.00000000	    -30.70553833	     -2.75060539	     -3.76897815	     13.45475596	    -16.41924125	     31.15248438	     16.78918685	     13.83940224	      0.00000000	      0.00000000	     19.38480109	    -19.30328371	     35.81122200	     22.04893642	     87.79104203	      0.00000000	      0.00000000
     18.83000000	    -22.65066651	     -3.40335521	    176.48795040	      0.26014561	      0.98438409	     -0.57317201	    -12.10915045	    -12.00078949	    -12.69608494	     15.82752661	      0.27624245	      3.08604649	      0.00000000	      0.00000000	    -13.36044911	      2.19073906	     -7.93784175	     14.76424895	      0.25768476	      4.80276612	      0.00000000	      0.00000000	    -30.81382744	     -2.72297308	     -3.85118455	     13.45038508	    -16.37011442	     31.12152263	     16.83662853	     13.35965423	      0.00000000	      0.00000000	     19.30166057	    -19.37699225	     35.82077925	     22.12079013	     87.80103716	      0.00000000	      0.00000000
     18.83500000	    -22.81210493	     -3.43892365	    176.47336537	      0.26029150	      0.98429499	     -0.57316931	    -12.16915922	    -12.08602459	    -12.76228362	     16.04709516	      0.28007465	      3.18042965	      0.00000000	      0.00000000	    -13.50800765	      2.23238707	     -7.98405566	     14.80616642	      0.25841635	      4.84003142	      0.00000000	      0.00000000	    -30.83272029	     -2.78452369	     -3.88915734	     13.43483795	    -16.26981911	     30.92612957	     16.82229013	     12.85431744	      0.00000000	      0.00000000	     19.22686706	    -19.45954954	     35.89589680	     22.18760442	     87.79822555	      0.00000000	      0.00000000
     18.84000000	    -23.09112995	     -3.48018644	    176.49027935	      0.26031106	      0.98448913	     -0.57313158	    -12.50075688	    -12.13938259	    -12.84925973	     16.02471578	      0.27968405	      3.19853627	      0.00000000	      0.00000000	    -13.88550395	      2.29716290	     -7.99475215	     14.65606146	      0.25579653	      4.78408971	      0.00000000	      0.00000000	    -30.98068975	     -2.84293804	     -3.99270147	     13.41328216	    -16.18110483	     30.81897633	     16.68323903	     13.65371864	      0.00000000	      0.00000000	     19.11615874	    -19.51078098	     35.77711442	     22.22431313	     87.80463222	      0.00000000	      0.00000000
     18.84500000	    -23.33034428	     -3.56744078	    176.50216986	      0.26038707	      0.98464877	     -0.57309460	    -12.76504167	    -12.25120104	    -12.94566784	     16.04352091	      0.28001226	      3.20825122	      0.00000000	      0.00000000	    -14.23620449	      2.41690304	     -7.96876502	     14.45421515	      0.25227365	      4.68452582	      0.00000000	      0.00000000	    -31.10573853	     -2.94845683	     -4.07584020	     13.38409632	    -16.06167417	     30.56049736	     16.66954115	     13.15712670	      0.00000000	      0.00000000	     19.04605562	    -19.58081708	     35.85091877	     22.27400436	     87.79618883	      0.00000000	      0.00000000
     18.85000000	    -23.56479918	     -3.48562824	    176.52806968	      0.26047835	      0.98484539	     -0.57306244	    -13.07975522	    -12.15161855	    -13.00736592	     15.94425058	      0.27827967	      3.15675196	      0.00000000	      0.00000000	    -14.52077095	      2.32748687	     -8.05748016	     14.41246013	      0.25154488	      4.69362976	      0.00000000	      0.00000000	    -31.24718094	     -2.88333663	     -4.11519182	     13.34136276	    -16.03887367	     30.70614356	     16.81602145	     12.00313589	      0.00000000	      0.00000000	     18.96844318	    -19.57996268	     35.67557135	     22.24245317	     87.81654128	      0.00000000	      0.00000000
     18.85500000	    -23.86063462	     -3.54162125	    176.52474296	      0.26059877	      0.98514298	     -0.57306985	    -13.45167223	    -12.22060743	    -13.07175131	     15.86127734	      0.27683151	      3.13025928	      0.00000000	      0.00000000	    -14.97836780	      2.42332296	     -8.02016308	     14.13127129	      0.24663721	      4.57208178	      0.00000000	      0.00000000	    -31.47269487	     -2.96646452	     -4.14802003	     13.33364547	    -15.91339102	     30.24809588	     16.53885546	     13.58150977	      0.00000000	      0.00000000	     18.94389385	    -19.63602035	     35.79363422	     22.30254592	     87.79246297	      0.00000000	      0.00000000
     18.86000000	    -24.02657350	     -3.49797339	    176.58931978	      0.26061973	      0.98526548	     -0.57298363	    -13.71340737	    -12.15756351	    -13.16832317	     15.74799174	      0.27485431	      3.07612381	      0.00000000	      0.00000000	    -15.19096935	      2.36776437	     -8.00427294	     14.08212191	      0.24577939	      4.56102158	      0.00000000	      0.00000000	    -31.56811383	     -2.92076444	     -4.16866584	     13.28461680	    -15.83011248	     29.95894467	     16.36888149	     14.42368049	      0.00000000	      0.00000000	     18.91607100	    -19.64696200	     35.91241858	     22.30181501	     87.80949594	      0.00000000	      0.00000000
     18.86500000	    -24.23638680	     -3.50809743	    176.62064346	      0.26071360	      0.98551731	     -0.57297221	    -14.01434337	    -12.15663151	    -13.23536642	     15.63515973	      0.27288502	      3.04331332	      0.00000000	      0.00000000	    -15.48696016	      2.38148378	     -8.02125004	     13.93909977	      0.24328319	      4.47704435	      0.00000000	      0.00000000	    -31.72782226	     -2.93786972	     -4.18466575	     13.22660900	    -15.76926888	     29.71681846	     16.39878238	     14.07779130	      0.00000000	      0.00000000	     18.89596281	    -19.60807161	     35.80932686	     22.23390276	     87.82496517	      0.00000000	      0.00000000
     18.87000000	    -24.35619373	     -3.43180394	    176.65317383	      0.26066274	      0.98561803	     -0.57292436	    -14.22759063	    -12.05784000	    -13.26034493	     15.50633322	      0.27063657	      2.96086828	      0.00000000	      0.00000000	    -15.63296861	      2.28826784	     -8.07895850	     13.93986211	      0.24329649	      4.51882230	      0.00000000	      0.00000000	    -31.79246024	     -2.86473120	     -4.18066114	     13.16020035	    -15.73788612	     29.73210202	     16.55037884	     12.64769649	      0.00000000	      0.00000000	     18.82893280	    -19.54562237	     35.62593958	     22.15417206	     87.81901013	      0.00000000	      0.00000000
     18.87500000	    -24.48657453	     -3.43162308	    176.68184657	      0.26054801	      0.98574349	     -0.57289136	    -14.44610796	    -12.04882184	    -13.32693850	     15.40778944	      0.26891666	      2.95078011	      0.00000000	      0.00000000	    -15.84723828	      2.29267932	     -8.07575493	     13.81347371	      0.24109060	      4.48157576	      0.00000000	      0.00000000	    -31.87697804	     -2.86792659	     -4.14889835	     13.06819495	    -15.68931538	     29.38149822	     16.33878789	     14.22065678	      0.00000000	      0.00000000	     18.78561597	    -19.53618125	     35.67391016	     22.16622223	     87.81778370	      0.00000000	      0.00000000
     18.88000000	    -24.60861191	     -3.43392193	    176.75673172	      0.26050508	      0.98588539	     -0.57278663	    -14.67406603	    -12.02674549	    -13.42951950	     15.28337466	      0.26674521	      2.91793192	      0.00000000	      0.00000000	    -16.00744941	      2.27867163	     -8.04152858	     13.76860692	      0.24030752	      4.46889937	      0.00000000	      0.00000000	    -31.97292366	     -2.85043120	     -4.16600092	     13.00127806	    -15.63681016	     29.12198812	     16.19508589	     15.13784629	      0.00000000	      0.00000000	     18.75301746	    -19.54262137	     35.73788486	     22.18763886	     87.81482142	      0.00000000	      0.00000000
     18.88500000	    -24.69426501	     -3.45015700	    176.74441019	      0.26043793	      0.98598095	     -0.57281961	    -14.79080828	    -12.05243106	    -13.47642386	     15.25729255	      0.26628999	      2.89986413	      0.00000000	      0.00000000	    -16.17264001	      2.30949864	     -8.06429832	     13.63628224	      0.23799802	      4.38790563	      0.00000000	      0.00000000	    -32.04047309	     -2.88838038	     -4.11126784	     12.92560255	    -15.59412971	     29.00307764	     16.31397069	     13.75412608	      0.00000000	      0.00000000	     18.70943666	    -19.52762281	     35.75881639	     22.18644774	     87.80626321	      0.00000000	      0.00000000
